<?xml version="1.0" encoding="utf-8"?>
<svg width="1015px" height="196px" viewBox="0 0 1015 196" version="1.1" xmlns:xlink="http://www.w3.org/1999/xlink" xmlns="http://www.w3.org/2000/svg">
  <defs>
    <path d="M1015 0L1015 0L1015 196L0 196L0 0L1015 0Z" id="path_1" />
    <clipPath id="clip_1">
      <use xlink:href="#path_1" clip-rule="evenodd" fill-rule="evenodd" />
    </clipPath>
  </defs>
  <g id="Logo2">
    <path d="M1015 0L1015 0L1015 196L0 196L0 0L1015 0Z" id="Logo2" fill="#FFFFFF" stroke="none" />
    <g id="TECHTAILOR" transform="translate(10 10)" clip-path="url(#clip_1)">
      <g transform="translate(0, 40.140007)" id="TECH-TAILOR">
        <path d="M1.95557 43.2457Q1.95557 42.0289 2.82471 41.0293Q3.7373 40.0298 5.17139 40.0298L88.3047 40.0298Q89.6953 40.0298 90.5645 41.0293Q91.4771 42.0289 91.4771 43.2457L91.4771 48.9385Q91.4771 52.3282 88.3047 52.3282L5.17139 52.3282Q3.7373 52.3282 2.82471 51.3721Q1.95557 50.3726 1.95557 48.9385L1.95557 43.2457ZM39.6763 65.3218Q39.6763 63.8877 40.6323 63.0186Q41.6318 62.106 43.0659 62.106L50.1929 62.106Q51.627 62.106 52.4961 63.0186Q53.4087 63.8877 53.4087 65.3218L53.4087 128.682Q53.4087 130.116 52.4961 131.029Q51.627 131.898 50.1929 131.898L43.0659 131.898Q41.6318 131.898 40.6323 131.029Q39.6763 130.116 39.6763 128.682L39.6763 65.3218ZM128.516 119.6L191.702 119.6Q192.962 119.6 193.918 120.599Q194.918 121.555 194.918 122.989L194.918 128.682Q194.918 129.942 193.918 130.942Q192.962 131.898 191.702 131.898L117.999 131.898Q116.782 131.898 115.783 130.942Q114.827 129.942 114.827 128.682L114.827 43.4195Q114.827 42.0289 115.783 41.0293Q116.782 40.0298 117.999 40.0298L190.833 40.0298Q192.224 40.0298 193.18 41.0293Q194.179 42.0289 194.179 43.4195L194.179 49.1124Q194.179 50.3726 193.18 51.3721Q192.224 52.3282 190.833 52.3282L128.516 52.3282L128.516 119.6ZM138.293 81.1836Q138.293 79.7496 139.163 78.8804Q140.075 77.9678 141.509 77.9678L186.183 77.9678Q187.443 77.9678 188.399 78.8804Q189.399 79.7496 189.399 81.1836L189.399 86.7027Q189.399 88.0933 188.399 89.0059Q187.443 89.875 186.183 89.875L141.509 89.875Q140.075 89.875 139.163 89.0059Q138.293 88.0933 138.293 86.7027L138.293 81.1836ZM226.596 49.8511Q226.596 46.6353 229.247 43.3326Q231.942 40.0298 236.548 40.0298L306.34 40.0298Q307.774 40.0298 308.643 41.0293Q309.556 42.0289 309.556 43.2457L309.556 49.1124Q309.556 50.5464 308.643 51.459Q307.774 52.3282 306.34 52.3282L240.459 52.3282L240.459 119.6L308.643 119.6Q310.077 119.6 310.947 120.512Q311.859 121.381 311.859 122.815L311.859 128.682Q311.859 129.942 310.947 130.942Q310.077 131.898 308.643 131.898L236.374 131.898Q232.115 131.898 229.334 128.899Q226.596 125.857 226.596 122.12L226.596 49.8511ZM347.833 43.4195Q347.833 42.0289 348.789 41.0293Q349.788 40.0298 351.179 40.0298L358.654 40.0298Q360.088 40.0298 360.957 41.0293Q361.869 42.0289 361.869 43.4195L361.869 128.508Q361.869 129.942 360.957 130.942Q360.088 131.898 358.654 131.898L351.179 131.898Q349.788 131.898 348.789 130.942Q347.833 129.942 347.833 128.508L347.833 43.4195ZM372.038 81.0098Q372.038 79.5757 372.908 78.6197Q373.82 77.6202 375.211 77.6202L427.185 77.6202L427.185 43.4195Q427.185 42.0289 428.141 41.0293Q429.141 40.0298 430.401 40.0298L437.354 40.0298Q438.788 40.0298 439.744 41.0293Q440.744 42.0289 440.744 43.4195L440.744 128.508Q440.744 129.942 439.744 130.942Q438.788 131.898 437.354 131.898L430.401 131.898Q429.141 131.898 428.141 130.942Q427.185 129.942 427.185 128.508L427.185 89.875L375.211 89.875Q373.82 89.875 372.908 89.0059Q372.038 88.0933 372.038 86.7027L372.038 81.0098Z" />
      </g>
      <g transform="translate(462.088, 42.72001)" id="TECH-TAILOR">
        <path d="M4.18359 35.849L4.18359 52.8646L32.5547 52.8646L32.5547 133.056L49.6758 133.056L49.6758 52.8646L78.0469 52.8646L78.0469 35.849L4.18359 35.849ZM124.565 54.8685C125.585 52.5482 127.167 51.5638 129.452 51.5638C131.772 51.5638 133.354 52.5482 134.198 54.8685L163.729 133.056L182.608 133.056L149.772 46.6419C146.292 37.5716 139.683 34.1263 129.593 34.1263C119.362 34.1263 112.753 37.5716 109.167 46.6419L75.0302 133.056L93.7333 133.056L124.565 54.8685ZM196.996 35.849L196.996 133.056L213.977 133.056L213.977 35.849L196.996 35.849ZM236.441 35.849L236.441 99.5169C236.441 118.958 246.531 133.056 272.3 133.056L311.043 133.056L311.043 116.076L273.32 116.076C258.062 116.076 253.457 108.728 253.457 99.3763L253.457 35.849L236.441 35.849ZM364.473 35.849C336.242 35.849 320.527 51.9857 320.527 84.681C320.527 117.201 336.102 133.056 364.473 133.056L377.727 133.056C406.063 133.056 421.637 117.201 421.637 84.681C421.637 51.9857 405.922 35.849 377.727 35.849L364.473 35.849ZM377.727 52.8646C396.43 52.8646 404.48 62.3568 404.48 84.5404C404.48 106.865 396.43 116.076 377.727 116.076L364.473 116.076C345.594 116.076 337.543 106.865 337.543 84.681C337.543 62.3568 345.734 52.8646 364.473 52.8646L377.727 52.8646ZM441.371 35.849L441.371 52.8646L494.633 52.8646C503.984 52.8646 508.168 58.7357 508.168 65.6615C508.168 72.5872 504.301 79.1966 494.633 79.1966L456.77 79.1966C446.117 79.1966 441.512 83.6615 441.512 94.5951L441.512 133.056L458.492 133.056L458.492 97.9349C458.492 96.1771 459.371 95.474 460.953 95.474L486.301 95.474L508.449 133.056L527.328 133.056L504.723 94.1732C519.559 89.9896 525.324 77.0521 525.324 64.9583C525.324 49.3841 515.938 35.849 494.07 35.849L441.371 35.849Z" />
      </g>
    </g>
    <g id="TECHTAILOR" transform="translate(10 10)" clip-path="url(#clip_1)">
      <g transform="translate(0, 40.140007)" id="TECH-TAILOR">
        <path d="M1.95557 43.2457Q1.95557 42.0289 2.82471 41.0293Q3.7373 40.0298 5.17139 40.0298L88.3047 40.0298Q89.6953 40.0298 90.5645 41.0293Q91.4771 42.0289 91.4771 43.2457L91.4771 48.9385Q91.4771 52.3282 88.3047 52.3282L5.17139 52.3282Q3.7373 52.3282 2.82471 51.3721Q1.95557 50.3726 1.95557 48.9385L1.95557 43.2457ZM39.6763 65.3218Q39.6763 63.8877 40.6323 63.0186Q41.6318 62.106 43.0659 62.106L50.1929 62.106Q51.627 62.106 52.4961 63.0186Q53.4087 63.8877 53.4087 65.3218L53.4087 128.682Q53.4087 130.116 52.4961 131.029Q51.627 131.898 50.1929 131.898L43.0659 131.898Q41.6318 131.898 40.6323 131.029Q39.6763 130.116 39.6763 128.682L39.6763 65.3218ZM128.516 119.6L191.702 119.6Q192.962 119.6 193.918 120.599Q194.918 121.555 194.918 122.989L194.918 128.682Q194.918 129.942 193.918 130.942Q192.962 131.898 191.702 131.898L117.999 131.898Q116.782 131.898 115.783 130.942Q114.827 129.942 114.827 128.682L114.827 43.4195Q114.827 42.0289 115.783 41.0293Q116.782 40.0298 117.999 40.0298L190.833 40.0298Q192.224 40.0298 193.18 41.0293Q194.179 42.0289 194.179 43.4195L194.179 49.1124Q194.179 50.3726 193.18 51.3721Q192.224 52.3282 190.833 52.3282L128.516 52.3282L128.516 119.6ZM138.293 81.1836Q138.293 79.7496 139.163 78.8804Q140.075 77.9678 141.509 77.9678L186.183 77.9678Q187.443 77.9678 188.399 78.8804Q189.399 79.7496 189.399 81.1836L189.399 86.7027Q189.399 88.0933 188.399 89.0059Q187.443 89.875 186.183 89.875L141.509 89.875Q140.075 89.875 139.163 89.0059Q138.293 88.0933 138.293 86.7027L138.293 81.1836ZM226.596 49.8511Q226.596 46.6353 229.247 43.3326Q231.942 40.0298 236.548 40.0298L306.34 40.0298Q307.774 40.0298 308.643 41.0293Q309.556 42.0289 309.556 43.2457L309.556 49.1124Q309.556 50.5464 308.643 51.459Q307.774 52.3282 306.34 52.3282L240.459 52.3282L240.459 119.6L308.643 119.6Q310.077 119.6 310.947 120.512Q311.859 121.381 311.859 122.815L311.859 128.682Q311.859 129.942 310.947 130.942Q310.077 131.898 308.643 131.898L236.374 131.898Q232.115 131.898 229.334 128.899Q226.596 125.857 226.596 122.12L226.596 49.8511ZM347.833 43.4195Q347.833 42.0289 348.789 41.0293Q349.788 40.0298 351.179 40.0298L358.654 40.0298Q360.088 40.0298 360.957 41.0293Q361.869 42.0289 361.869 43.4195L361.869 128.508Q361.869 129.942 360.957 130.942Q360.088 131.898 358.654 131.898L351.179 131.898Q349.788 131.898 348.789 130.942Q347.833 129.942 347.833 128.508L347.833 43.4195ZM372.038 81.0098Q372.038 79.5757 372.908 78.6197Q373.82 77.6202 375.211 77.6202L427.185 77.6202L427.185 43.4195Q427.185 42.0289 428.141 41.0293Q429.141 40.0298 430.401 40.0298L437.354 40.0298Q438.788 40.0298 439.744 41.0293Q440.744 42.0289 440.744 43.4195L440.744 128.508Q440.744 129.942 439.744 130.942Q438.788 131.898 437.354 131.898L430.401 131.898Q429.141 131.898 428.141 130.942Q427.185 129.942 427.185 128.508L427.185 89.875L375.211 89.875Q373.82 89.875 372.908 89.0059Q372.038 88.0933 372.038 86.7027L372.038 81.0098Z" />
      </g>
      <g transform="translate(462.088, 42.72001)" id="TECH-TAILOR">
        <path d="M4.18359 35.849L4.18359 52.8646L32.5547 52.8646L32.5547 133.056L49.6758 133.056L49.6758 52.8646L78.0469 52.8646L78.0469 35.849L4.18359 35.849ZM124.565 54.8685C125.585 52.5482 127.167 51.5638 129.452 51.5638C131.772 51.5638 133.354 52.5482 134.198 54.8685L163.729 133.056L182.608 133.056L149.772 46.6419C146.292 37.5716 139.683 34.1263 129.593 34.1263C119.362 34.1263 112.753 37.5716 109.167 46.6419L75.0302 133.056L93.7333 133.056L124.565 54.8685ZM196.996 35.849L196.996 133.056L213.977 133.056L213.977 35.849L196.996 35.849ZM236.441 35.849L236.441 99.5169C236.441 118.958 246.531 133.056 272.3 133.056L311.043 133.056L311.043 116.076L273.32 116.076C258.062 116.076 253.457 108.728 253.457 99.3763L253.457 35.849L236.441 35.849ZM364.473 35.849C336.242 35.849 320.527 51.9857 320.527 84.681C320.527 117.201 336.102 133.056 364.473 133.056L377.727 133.056C406.063 133.056 421.637 117.201 421.637 84.681C421.637 51.9857 405.922 35.849 377.727 35.849L364.473 35.849ZM377.727 52.8646C396.43 52.8646 404.48 62.3568 404.48 84.5404C404.48 106.865 396.43 116.076 377.727 116.076L364.473 116.076C345.594 116.076 337.543 106.865 337.543 84.681C337.543 62.3568 345.734 52.8646 364.473 52.8646L377.727 52.8646ZM441.371 35.849L441.371 52.8646L494.633 52.8646C503.984 52.8646 508.168 58.7357 508.168 65.6615C508.168 72.5872 504.301 79.1966 494.633 79.1966L456.77 79.1966C446.117 79.1966 441.512 83.6615 441.512 94.5951L441.512 133.056L458.492 133.056L458.492 97.9349C458.492 96.1771 459.371 95.474 460.953 95.474L486.301 95.474L508.449 133.056L527.328 133.056L504.723 94.1732C519.559 89.9896 525.324 77.0521 525.324 64.9583C525.324 49.3841 515.938 35.849 494.07 35.849L441.371 35.849Z" />
      </g>
    </g>
  </g>
</svg>