<?xml version="1.0" encoding="utf-8"?>
<svg width="232px" height="64px" viewBox="0 0 232 64" version="1.1" xmlns:xlink="http://www.w3.org/1999/xlink" xmlns="http://www.w3.org/2000/svg">
  <defs>
    <path d="M232 0L232 0L232 64L0 64L0 0L232 0Z" id="path_1" />
    <clipPath id="clip_1">
      <use xlink:href="#path_1" clip-rule="evenodd" fill-rule="evenodd" />
    </clipPath>
  </defs>
  <g id="Icon 32">
    <path d="M232 0L232 0L232 64L0 64L0 0L232 0Z" id="Icon-32" fill="#000000" stroke="none" />
    <g id="TECHTAILOR" transform="translate(2 -2)" clip-path="url(#clip_1)">
      <g transform="translate(0, 8.979)" id="TECH-TAILOR" fill="#FFFFFF">
        <path d="M0.451 9.963Q0.451 9.676 0.656 9.4505Q0.861 9.225 1.189 9.225L20.336 9.225Q20.664 9.225 20.869 9.4505Q21.074 9.676 21.074 9.963L21.074 11.275Q21.074 12.054 20.336 12.054L1.189 12.054Q0.861 12.054 0.656 11.8285Q0.451 11.603 0.451 11.275L0.451 9.963ZM9.143 15.047Q9.143 14.719 9.3685 14.514Q9.594 14.309 9.922 14.309L11.562 14.309Q11.89 14.309 12.095 14.514Q12.3 14.719 12.3 15.047L12.3 29.643Q12.3 29.971 12.095 30.176C11.9583 30.3127 11.7807 30.381 11.562 30.381L9.922 30.381C9.70333 30.381 9.51883 30.3127 9.3685 30.176Q9.143 29.971 9.143 29.643L9.143 15.047ZM29.602 27.552L44.157 27.552Q44.444 27.552 44.6695 27.7775Q44.895 28.003 44.895 28.331L44.895 29.643Q44.895 29.93 44.6695 30.1555C44.5192 30.3058 44.3483 30.381 44.157 30.381L27.183 30.381C26.9917 30.381 26.8208 30.3058 26.6705 30.1555Q26.445 29.93 26.445 29.643L26.445 10.004Q26.445 9.676 26.6705 9.4505Q26.896 9.225 27.183 9.225L43.952 9.225Q44.28 9.225 44.5055 9.4505Q44.731 9.676 44.731 10.004L44.731 11.316Q44.731 11.603 44.5055 11.8285Q44.28 12.054 43.952 12.054L29.602 12.054L29.602 27.552ZM31.857 18.696Q31.857 18.368 32.062 18.163Q32.267 17.958 32.595 17.958L42.886 17.958Q43.173 17.958 43.3985 18.163Q43.624 18.368 43.624 18.696L43.624 19.967Q43.624 20.295 43.3985 20.5Q43.173 20.705 42.886 20.705L32.595 20.705Q32.267 20.705 32.062 20.5Q31.857 20.295 31.857 19.967L31.857 18.696ZM52.193 11.48Q52.193 10.742 52.808 9.9835Q53.423 9.225 54.489 9.225L70.561 9.225Q70.889 9.225 71.094 9.4505Q71.299 9.676 71.299 9.963L71.299 11.316Q71.299 11.644 71.094 11.849Q70.889 12.054 70.561 12.054L55.391 12.054L55.391 27.552L71.094 27.552Q71.422 27.552 71.627 27.757Q71.832 27.962 71.832 28.29L71.832 29.643Q71.832 29.93 71.627 30.1555C71.4903 30.3058 71.3127 30.381 71.094 30.381L54.448 30.381Q53.464 30.381 52.8285 29.684Q52.193 28.987 52.193 28.126L52.193 11.48ZM80.114 10.004Q80.114 9.676 80.3366 9.4505Q80.5592 9.225 80.8834 9.225L82.5836 9.225Q82.9071 9.225 83.1096 9.4505Q83.312 9.676 83.312 10.004L83.312 29.602Q83.312 29.93 83.1096 30.1555C82.9746 30.3058 82.7993 30.381 82.5836 30.381L80.8834 30.381C80.6673 30.381 80.485 30.3058 80.3366 30.1555Q80.114 29.93 80.114 29.602L80.114 10.004ZM85.69 18.655Q85.69 18.327 85.895 18.1015Q86.1 17.876 86.428 17.876L98.4 17.876L98.4 10.004Q98.4 9.676 98.6284 9.4505Q98.8568 9.225 99.1476 9.225L100.768 9.225Q101.1 9.225 101.329 9.4505Q101.557 9.676 101.557 10.004L101.557 29.602Q101.557 29.93 101.329 30.1555C101.176 30.3058 100.989 30.381 100.768 30.381L99.1476 30.381C98.9537 30.381 98.7806 30.3058 98.6284 30.1555Q98.4 29.93 98.4 29.602L98.4 20.705L86.428 20.705Q86.1 20.705 85.895 20.5Q85.69 20.295 85.69 19.967L85.69 18.655Z" />
      </g>
      <g transform="translate(106.436005, 10.652998)" id="TECH-TAILOR" fill="#FFFFFF">
        <path d="M0.928 7.968L0.928 11.744L7.232 11.744L7.232 29.568L11.04 29.568L11.04 11.744L17.344 11.744L17.344 7.968L0.928 7.968ZM27.68 12.192C27.904 11.68 28.256 11.456 28.768 11.456C29.28 11.456 29.632 11.68 29.824 12.192L36.384 29.568L40.576 29.568L33.28 10.368C32.512 8.352 31.04 7.584 28.8 7.584C26.528 7.584 25.056 8.352 24.256 10.368L16.672 29.568L20.832 29.568L27.68 12.192ZM43.776 7.968L43.776 29.568L47.552 29.568L47.552 7.968L43.776 7.968ZM52.544 7.968L52.544 22.112C52.544 26.432 54.784 29.568 60.512 29.568L69.12 29.568L69.12 25.792L60.736 25.792C57.344 25.792 56.32 24.16 56.32 22.08L56.32 7.968L52.544 7.968ZM80.992 7.968C74.72 7.968 71.232 11.552 71.232 18.816C71.232 26.048 74.688 29.568 80.992 29.568L83.936 29.568C90.24 29.568 93.696 26.048 93.696 18.816C93.696 11.552 90.208 7.968 83.936 7.968L80.992 7.968ZM83.936 11.744C88.096 11.744 89.888 13.856 89.888 18.784C89.888 23.744 88.096 25.792 83.936 25.792L80.992 25.792C76.8 25.792 75.008 23.744 75.008 18.816C75.008 13.856 76.832 11.744 80.992 11.744L83.936 11.744ZM98.08 7.968L98.08 11.744L109.92 11.744C112 11.744 112.928 13.056 112.928 14.592C112.928 16.128 112.064 17.6 109.92 17.6L101.504 17.6C99.136 17.6 98.112 18.592 98.112 21.024L98.112 29.568L101.888 29.568L101.888 21.76C101.888 21.376 102.08 21.216 102.432 21.216L108.064 21.216L112.992 29.568L117.184 29.568L112.16 20.928C115.456 20 116.736 17.12 116.736 14.432C116.736 10.976 114.656 7.968 109.792 7.968L98.08 7.968Z" />
      </g>
    </g>
    <g id="TECHTAILOR" transform="translate(2 -2)" clip-path="url(#clip_1)">
      <g transform="translate(0, 8.979)" id="TECH-TAILOR" fill="#FFFFFF">
        <path d="M0.451 9.963Q0.451 9.676 0.656 9.4505Q0.861 9.225 1.189 9.225L20.336 9.225Q20.664 9.225 20.869 9.4505Q21.074 9.676 21.074 9.963L21.074 11.275Q21.074 12.054 20.336 12.054L1.189 12.054Q0.861 12.054 0.656 11.8285Q0.451 11.603 0.451 11.275L0.451 9.963ZM9.143 15.047Q9.143 14.719 9.3685 14.514Q9.594 14.309 9.922 14.309L11.562 14.309Q11.89 14.309 12.095 14.514Q12.3 14.719 12.3 15.047L12.3 29.643Q12.3 29.971 12.095 30.176C11.9583 30.3127 11.7807 30.381 11.562 30.381L9.922 30.381C9.70333 30.381 9.51883 30.3127 9.3685 30.176Q9.143 29.971 9.143 29.643L9.143 15.047ZM29.602 27.552L44.157 27.552Q44.444 27.552 44.6695 27.7775Q44.895 28.003 44.895 28.331L44.895 29.643Q44.895 29.93 44.6695 30.1555C44.5192 30.3058 44.3483 30.381 44.157 30.381L27.183 30.381C26.9917 30.381 26.8208 30.3058 26.6705 30.1555Q26.445 29.93 26.445 29.643L26.445 10.004Q26.445 9.676 26.6705 9.4505Q26.896 9.225 27.183 9.225L43.952 9.225Q44.28 9.225 44.5055 9.4505Q44.731 9.676 44.731 10.004L44.731 11.316Q44.731 11.603 44.5055 11.8285Q44.28 12.054 43.952 12.054L29.602 12.054L29.602 27.552ZM31.857 18.696Q31.857 18.368 32.062 18.163Q32.267 17.958 32.595 17.958L42.886 17.958Q43.173 17.958 43.3985 18.163Q43.624 18.368 43.624 18.696L43.624 19.967Q43.624 20.295 43.3985 20.5Q43.173 20.705 42.886 20.705L32.595 20.705Q32.267 20.705 32.062 20.5Q31.857 20.295 31.857 19.967L31.857 18.696ZM52.193 11.48Q52.193 10.742 52.808 9.9835Q53.423 9.225 54.489 9.225L70.561 9.225Q70.889 9.225 71.094 9.4505Q71.299 9.676 71.299 9.963L71.299 11.316Q71.299 11.644 71.094 11.849Q70.889 12.054 70.561 12.054L55.391 12.054L55.391 27.552L71.094 27.552Q71.422 27.552 71.627 27.757Q71.832 27.962 71.832 28.29L71.832 29.643Q71.832 29.93 71.627 30.1555C71.4903 30.3058 71.3127 30.381 71.094 30.381L54.448 30.381Q53.464 30.381 52.8285 29.684Q52.193 28.987 52.193 28.126L52.193 11.48ZM80.114 10.004Q80.114 9.676 80.3366 9.4505Q80.5592 9.225 80.8834 9.225L82.5836 9.225Q82.9071 9.225 83.1096 9.4505Q83.312 9.676 83.312 10.004L83.312 29.602Q83.312 29.93 83.1096 30.1555C82.9746 30.3058 82.7993 30.381 82.5836 30.381L80.8834 30.381C80.6673 30.381 80.485 30.3058 80.3366 30.1555Q80.114 29.93 80.114 29.602L80.114 10.004ZM85.69 18.655Q85.69 18.327 85.895 18.1015Q86.1 17.876 86.428 17.876L98.4 17.876L98.4 10.004Q98.4 9.676 98.6284 9.4505Q98.8568 9.225 99.1476 9.225L100.768 9.225Q101.1 9.225 101.329 9.4505Q101.557 9.676 101.557 10.004L101.557 29.602Q101.557 29.93 101.329 30.1555C101.176 30.3058 100.989 30.381 100.768 30.381L99.1476 30.381C98.9537 30.381 98.7806 30.3058 98.6284 30.1555Q98.4 29.93 98.4 29.602L98.4 20.705L86.428 20.705Q86.1 20.705 85.895 20.5Q85.69 20.295 85.69 19.967L85.69 18.655Z" />
      </g>
      <g transform="translate(106.436005, 10.652998)" id="TECH-TAILOR" fill="#FFFFFF">
        <path d="M0.928 7.968L0.928 11.744L7.232 11.744L7.232 29.568L11.04 29.568L11.04 11.744L17.344 11.744L17.344 7.968L0.928 7.968ZM27.68 12.192C27.904 11.68 28.256 11.456 28.768 11.456C29.28 11.456 29.632 11.68 29.824 12.192L36.384 29.568L40.576 29.568L33.28 10.368C32.512 8.352 31.04 7.584 28.8 7.584C26.528 7.584 25.056 8.352 24.256 10.368L16.672 29.568L20.832 29.568L27.68 12.192ZM43.776 7.968L43.776 29.568L47.552 29.568L47.552 7.968L43.776 7.968ZM52.544 7.968L52.544 22.112C52.544 26.432 54.784 29.568 60.512 29.568L69.12 29.568L69.12 25.792L60.736 25.792C57.344 25.792 56.32 24.16 56.32 22.08L56.32 7.968L52.544 7.968ZM80.992 7.968C74.72 7.968 71.232 11.552 71.232 18.816C71.232 26.048 74.688 29.568 80.992 29.568L83.936 29.568C90.24 29.568 93.696 26.048 93.696 18.816C93.696 11.552 90.208 7.968 83.936 7.968L80.992 7.968ZM83.936 11.744C88.096 11.744 89.888 13.856 89.888 18.784C89.888 23.744 88.096 25.792 83.936 25.792L80.992 25.792C76.8 25.792 75.008 23.744 75.008 18.816C75.008 13.856 76.832 11.744 80.992 11.744L83.936 11.744ZM98.08 7.968L98.08 11.744L109.92 11.744C112 11.744 112.928 13.056 112.928 14.592C112.928 16.128 112.064 17.6 109.92 17.6L101.504 17.6C99.136 17.6 98.112 18.592 98.112 21.024L98.112 29.568L101.888 29.568L101.888 21.76C101.888 21.376 102.08 21.216 102.432 21.216L108.064 21.216L112.992 29.568L117.184 29.568L112.16 20.928C115.456 20 116.736 17.12 116.736 14.432C116.736 10.976 114.656 7.968 109.792 7.968L98.08 7.968Z" />
      </g>
    </g>
  </g>
</svg>