<svg id="Layer_1" data-name="Layer 1" xmlns="http://www.w3.org/2000/svg" width="386.5" height="59.19" viewBox="0 0 386.5 59.19"><title>Samsung Group logo - Brandlogos.net</title><path d="M216.41,395.78a6.77,6.77,0,0,1,.1,4.12c-.48,1.82-1.72,3.74-5.36,3.74-3.44,0-5.55-2-5.55-5v-5.36H190.75v4.22c0,12.35,9.67,16.09,20.11,16.09,10,0,18.19-3.45,19.53-12.64a25.6,25.6,0,0,0-.1-9.1c-2.29-11.59-23.27-15-24.9-21.46a7.57,7.57,0,0,1-.1-2.87c.38-1.72,1.63-3.74,5.08-3.74,3.26,0,5.17,2,5.17,5v3.45h13.79v-3.93c0-12.07-10.82-13.89-18.68-13.89-9.86,0-17.81,3.26-19.35,12.26a19.67,19.67,0,0,0,.1,7.47C193.91,385.34,213.54,388.6,216.41,395.78ZM396,395.69a6.48,6.48,0,0,1,.1,4c-.48,1.82-1.72,3.64-5.36,3.64-3.45,0-5.46-2-5.46-5V393.1H370.6v4.21c0,12.16,9.57,15.9,19.92,15.9,9.87,0,18-3.35,19.35-12.55a25.16,25.16,0,0,0-.1-9c-2.3-11.49-23.08-14.85-24.61-21.26a7.44,7.44,0,0,1-.1-2.87c.38-1.72,1.53-3.64,5-3.64a4.7,4.7,0,0,1,5.08,5v3.36H408.8v-3.83c0-11.88-10.73-13.79-18.48-13.79-9.67,0-17.62,3.26-19.15,12.16a19.09,19.09,0,0,0,.1,7.37C373.76,385.34,393.19,388.6,396,395.69Zm114.63,4.88-.77-44.44h13.69v54.6H503.8l-13.88-45.88.77,45.88h-13.6v-54.6h20.5ZM262.28,360.15l-7.66,51.15H239.68l10.15-55.17h24.61L284.6,411.3H269.76Zm80.64,0-9.58,51.15h-14l-9.48-51.15-.38,51.15H295.71l1.15-55.17h22.5l7,43.1,7-43.1h22.5l1.25,55.17H343.3Zm99.4,42.92c3.83,0,5.08-2.69,5.27-4a14.81,14.81,0,0,0,.1-2.11V356h14v39.66c0,1.05-.1,3.06-.1,3.64-1,10.35-9.1,13.7-19.25,13.7s-18.29-3.35-19.25-13.7a21.36,21.36,0,0,1-.1-3.64V356h14v40.9a15.4,15.4,0,0,0,.09,2.11c.29,1.44,1.44,4,5.27,4Zm115.3-.58c4,0,5.36-2.59,5.65-4a7.75,7.75,0,0,0,.1-2.11v-8h-5.65v-8h19.53v14.85a29,29,0,0,1-.19,3.64c-1,10.06-9.67,13.6-19.44,13.6s-18.48-3.54-19.44-13.6a28.49,28.49,0,0,1-.19-3.64V371.84c0-1,.1-2.68.19-3.64,1.24-10.34,9.57-13.6,19.44-13.6S576,357.85,577,368.2a26.34,26.34,0,0,1,.1,3.64v1.82h-14v-3.07a11.58,11.58,0,0,0-.19-2.11c-.29-1.24-1.34-4-5.55-4-4,0-5.17,2.68-5.46,4a11.3,11.3,0,0,0-.19,2.59v25.29a15.5,15.5,0,0,0,.1,2.11c.38,1.53,1.82,4,5.85,4Z" transform="translate(-190.75 -354.4)"/></svg>